<svg xmlns="http://www.w3.org/2000/svg" viewBox="0 0 200 60">
<!-- SVG created with Arrow, by QuiverAI (https://quiver.ai) -->
  <style type="text/css">.cls-0 {fill:#FF6103;}
.cls-1 {fill:#112C65;}
.cls-2 {fill:#193359;}
.cls-3 {fill:#FF9D00;}
.cls-4 {fill:#FF7900;}
.cls-5 {fill:#1B3556;}
.cls-6 {fill:#FF7B00;}
.cls-7 {fill:#FF8400;}</style>
  <path class="cls-0" d="m65.4 31.5h-3.3v9.2h-5.5v-24.3h10.1c5.4 0 9.1 2.6 9.1 7.3 0 3.3-1.7 5.6-4.6 7.3l5.3 9.6h-6.4l-4.7-9.1zm-3.5-4.2h3.5c2.8 0 4.5-1.2 4.5-3.4 0-2.1-1.3-3.2-4.1-3.2h-3.9v6.6z"/>
  <path class="cls-0" d="m95.2 33.6h-13.1c0.5 2.4 2.3 3.5 5.2 3.5 2 0 4.1-0.5 6.4-1.7l0.1 3.9c-1.9 1.2-4.4 1.8-6.9 1.8-6 0-10-3.1-10-9.2 0-5.5 3.7-9.6 9.5-9.6 5.5 0 8.9 2.9 8.9 8.8 0 0.7 0 1.7-0.1 2.5zm-13.1-3.4h8.5c-0.4-2.5-1.8-3.9-4.2-3.9-2.6 0-4 1.4-4.3 3.9z"/>
  <path class="cls-0" d="m96.5 39.3 0.7-4c1.2 1.1 3.9 1.8 6.1 1.8 2 0 3-0.5 3-1.5 0-3.1-9.7-0.4-9.7-7.3 0-3.8 3.3-5.9 7.8-5.9 2.3 0 4.8 0.4 6.6 1.4l-0.9 4.1c-1.5-1-3.9-1.5-5.9-1.5-1.6 0-2.6 0.6-2.6 1.5 0 2.7 10.1 0.7 10.1 7.5 0 3.7-3.1 5.7-7.9 5.7-2.4 0-5.7-0.7-7.3-1.8z"/>
  <path class="cls-0" d="m132.3 33.6h-13.3c0.5 2.4 2.3 3.4 5 3.4 2 0 4.2-0.4 6.5-1.7l0.1 4.1c-1.8 1-4.1 1.7-6.8 1.7-6.2 0-10.2-3-10.2-9.4 0-5.3 3.6-9.4 9.5-9.4 5.4 0 9.2 2.7 9.2 8.8v2.5zm-13.6-3.4h8.5c-0.3-2.5-1.6-4-4.1-4-2.7 0-4.2 1.4-4.4 4z"/>
  <path class="cls-0" d="m147.7 22.6-0.5 4.7c-0.6-0.3-1.2-0.4-2-0.4-2 0-5.2 0.7-5.3 5.1v8.6h-5.2v-18h5.3v3c0.9-2.2 2.6-3.4 5.2-3.4 0.9 0 1.7 0.1 2.5 0.4z"/>
  <path class="cls-1" d="m172.8 18.2c0-1.5 1.3-2.8 3.3-2.8 1.7 0.1 3.9 1.6 3.2 4-0.4 1-1.4 1.8-2.2 1.9-2.4 0.3-3.7-1-3.3-0.7-0.7-0.7 0 0-1-2.4zm1.5 4.5h5.2v17.9h-5.2v-17.9z"/>
  <path class="cls-1" d="m194.1 40.6-0.4-1.9c-1.4 1.4-3.4 2.4-5.9 2.4-3.5 0-6-1.5-6-5.1 0-3.4 3.1-6 9.8-6h1.8v-0.4c0-2-1.6-3-3.8-3-2 0-4.4 0.5-6 1.8l-0.1-4.4c1.8-1.1 4.2-1.7 6.8-1.7 5.4 0 7.9 2.7 7.9 7.8v10.5h-4.1zm-5-3.3c2 0 4.3-1 4.3-2.7v-1.6h-1.8c-3.5 0-5 0.9-5 2.4 0 1.3 1 1.9 2.5 1.9z"/>
  <path class="cls-1" d="m172.8 16.4"/>
  <path class="cls-1" d="m172.8 16.4"/>
  <path class="cls-1" d="m172.8 16.4"/>
  <path class="cls-1" d="m172.8 16.4"/>
  <path class="cls-1" d="m172.8 16.4"/>
  <path class="cls-1" d="m172.8 16.4"/>
  <path class="cls-1" d="m172.8 16.4"/>
  <path class="cls-1" d="m172.8 16.4"/>
  <path class="cls-1" d="m172.8 16.4"/>
  <path class="cls-1" d="m172.8 16.4"/>
  <path class="cls-1" d="m166.5 16.4-6.4 18-6-18h-6.3l9 24.2h6.5l9.5-24.2h-6.3z"/>
  <path class="cls-2" d="m30.5 3.5c5.6 2.9 6.7 7.9 6.4 13.2-0.5 6.3-4.7 11.4-9 15.3-4.3 4.1-9.2 8.1-9.3 14.6 0 3.3 1.4 7.5 3.8 7.8 1.5 0.2 2-0.4 2.8-1.3 8.4-9.5 18.7-17.5 19-30.1 0.2-10.1-8.1-17.9-13.7-19.5z"/>
  <path class="cls-3" d="m22 1.9c-9.6 0-19.6 7.5-19.6 20.5 0 11 7.3 18 14.7 27.5-1.5-5.9-0.7-13.3 1.9-19.5-3.3-1.3-8.6-5.3-8.6-10.5 0-4 3.2-7.5 6.5-8.9 0.7-0.3 1.3 0 1 1.4-0.3 2.5-1.5 8.3-1.8 10-0.1 2.2 1 3.6 2.3 4.5 0.6 0.4-1.3 5-2 6.5-4-1.8-7.3-7-7.3-11.8 0-6 4.3-12.2 8.5-14.5 4.6-2.5 9.8-3.2 12.1-2.7-2.1-1.8-4.7-2.5-7.7-2.5z"/>
  <path class="cls-4" d="m29.9 4.4c-3.2-1.3-9.3 0-13 2-4 2.2-8 7.5-8 14.6 0.2 7 4.2 11.6 7.5 13-1 2.7-2 10.4 0.7 16.1-1-3-1.7-12.1 4.5-20.1 2-3 3.1-2.4 4.8-4.4 1.3-1.5 1.2-3 1.3-4.7v-9.3c0-0.5 0.2-0.5 0.7-0.2 3.2 1.5 5.2 4 6.2 8 0.5-4.8 1-11-4.7-15zm-8.3 15c0 1-0.5 1.7-1 1.7-0.7 0-0.9-1-0.9-1.7l0.2-8.4c0-0.6 0.5-1.1 0.8-1.1 0.4 0 0.9 0.5 0.9 1v8.5zm3.8 0.5c0 0.7-0.3 1.5-0.8 1.5-0.6 0-0.9-0.8-0.9-1.4l0.2-8.4c0-0.7 0.5-1.2 0.8-1.2 0.5 0 0.9 0.5 0.9 1l-0.2 8.5z"/>
  <path class="cls-5" d="m31.1 49.7c-0.7 0-1.7 0.3-1.7 0.7 3.8 0.5 7.2 1.2 7.2 2.5 0 1.5-5.9 2.7-13.2 2.7s-13.5-1.2-13.5-2.7c0-1.2 3.5-2 7.3-2.5-0.1-0.3-0.6-0.5-1.5-0.5-5.3-0.3-10.3 0.8-10.3 3-0.3 2.7 8 4.2 17.8 4.4 5 0.1 15.2-0.7 17.4-2.4 3.4-2.2 0.8-4.9-9.5-5.2z"/>
  <path class="cls-7" d="m16.9 33.9"/>
  <path class="cls-6" d="m16.9 33.9"/>
</svg>